<svg xmlns="http://www.w3.org/2000/svg" width="30" height="30" viewBox="0 0 30 30">
  <path id="tupperware" d="M28.828,19.453H28.54L26.925,13.8a3.53,3.53,0,0,0-3.38-2.55H6.456a3.53,3.53,0,0,0-3.38,2.55L1.46,19.453H1.172a1.172,1.172,0,1,0,0,2.344H1.46l1.615,5.653A3.53,3.53,0,0,0,6.456,30H23.545a3.53,3.53,0,0,0,3.38-2.55l.586-2.05a1.172,1.172,0,0,0-2.254-.644l-.586,2.05a1.177,1.177,0,0,1-1.127.85H6.456a1.177,1.177,0,0,1-1.127-.85L3.9,21.8h6.977l.881,1.258a1.172,1.172,0,0,0,.96.5h4.629a1.172,1.172,0,0,0,.96-.5l.881-1.258h9.644a1.172,1.172,0,0,0,0-2.344Zm-10.254,0a1.172,1.172,0,0,0-.96.5l-.881,1.258H13.325l-.881-1.258a1.172,1.172,0,0,0-.96-.5H3.9l1.431-5.01a1.177,1.177,0,0,1,1.127-.85H23.545a1.177,1.177,0,0,1,1.127.85L26.1,19.453ZM5.706,8.851a11.166,11.166,0,0,0,3.5.524,5.169,5.169,0,0,0,2.659-.656,4.031,4.031,0,0,0,1.924-2.86H25.9a1.172,1.172,0,0,0,0-2.344H13.793A4.021,4.021,0,0,0,11.89.658,5.181,5.181,0,0,0,9.209,0,11.032,11.032,0,0,0,5.686.525,4.312,4.312,0,0,0,2.4,4.688a4.32,4.32,0,0,0,3.3,4.163Zm.742-6.109a8.815,8.815,0,0,1,2.762-.4,2.905,2.905,0,0,1,1.484.329c.212.126.859.51.859,2.014s-.657,1.885-.873,2.012a2.883,2.883,0,0,1-1.469.331c-1.047,0-4.463-.169-4.463-2.344,0-.634.193-1.428,1.7-1.946Zm0,0" transform="translate(0 0)" fill="#fff"/>
</svg>
