<?xml version="1.0"?>
<svg xmlns="http://www.w3.org/2000/svg" xmlns:xlink="http://www.w3.org/1999/xlink" version="1.1" id="Capa_1" x="0px" y="0px" viewBox="0 0 489.621 489.621" style="enable-background:new 0 0 489.621 489.621;" xml:space="preserve" width="512px" height="512px"><g><g>
	<g>
		<g>
			<path d="M0,131.332c0,20.6,17.1,37.7,38.1,37.7s36.9-16.7,38.1-37.7c1.6-32.3-38.1-85.9-38.1-85.9S0,95.932,0,131.332z" data-original="#000000" class="active-path" data-old_color="#000000" fill="#FFFFFF"/>
			<path d="M488.4,389.732c-4.3-4.3-20.2,3.9-38.1,19l-83.5-83.5l29.9-29.9l-16.7-16.7l-84.7,84.7l16.7,16.7l31.1-31.1l83.5,83.5     c-15.2,17.9-23.3,33.4-19,38.1c5.4,5.4,28-8.2,50.5-30.7C480.3,417.732,493.9,395.132,488.4,389.732z" data-original="#000000" class="active-path" data-old_color="#000000" fill="#FFFFFF"/>
			
				<rect x="405.423" y="309.323" transform="matrix(-0.7071 0.7071 -0.7071 -0.7071 948.7609 271.1552)" width="25.6" height="45.5" data-original="#000000" class="active-path" data-old_color="#000000" fill="#FFFFFF"/>
			
				<rect x="327.248" y="387.445" transform="matrix(-0.7071 -0.7071 0.7071 -0.7071 314.4679 930.7476)" width="45.5" height="25.6" data-original="#000000" class="active-path" data-old_color="#000000" fill="#FFFFFF"/>
			
				<rect x="142.896" y="100.096" transform="matrix(0.7071 0.7071 -0.7071 0.7071 140.3076 -67.8418)" width="18.3" height="70.699" data-original="#000000" class="active-path" data-old_color="#000000" fill="#FFFFFF"/>
			<path d="M121.2,127.832l23.3-23.3l-10.5-10.5l-5.1,5.1l-78.8-78.6c-3.5-3.5-9.3-3.5-12.8,0s-3.5,9.3,0,12.8l78.5,78.5l-5.1,5.1     L121.2,127.832z" data-original="#000000" class="active-path" data-old_color="#000000" fill="#FFFFFF"/>
			<path d="M215.3,111.132l-86.3,86.3l153.5,153.4l86.3-86.3L215.3,111.132z M147.3,201.632l14-14c3.1-3.1,8.2-3.1,11.3,0l0,0     c3.1,3.1,3.1,8.2,0,11.3l-14,14L147.3,201.632z M167.1,221.832l25.6-25.6c3.1-3.1,8.2-3.1,11.3,0l0,0c3.1,3.1,3.1,8.2,0,11.3     l-25.6,25.6L167.1,221.832z M186.9,241.632l14-14c3.1-3.1,8.2-3.1,11.3,0l0,0c3.1,3.1,3.1,8.2,0,11.3l-14,14L186.9,241.632z      M206.7,261.432l25.6-25.6c3.1-3.1,8.2-3.1,11.3,0l0,0c3.1,3.1,3.1,8.2,0,11.3l-25.6,25.6L206.7,261.432z M226.5,281.332l14-14     c3.1-3.1,8.2-3.1,11.3,0c3.1,3.1,3.1,8.2,0,11.3l-14,14L226.5,281.332z M246.3,301.132l25.6-25.6c3.1-3.1,8.2-3.1,11.3,0l0,0     c3.1,3.1,3.1,8.2,0,11.3l-25.6,25.6L246.3,301.132z M277.8,332.232l-11.3-11.3l14-14c3.1-3.1,8.2-3.1,11.3,0l0,0     c3.1,3.1,3.1,8.2,0,11.3L277.8,332.232z" data-original="#000000" class="active-path" data-old_color="#000000" fill="#FFFFFF"/>
		</g>
	</g>
</g></g> </svg>
