<?xml version="1.0"?>
<svg xmlns="http://www.w3.org/2000/svg" height="512px" viewBox="0 0 58 48" width="512px"><g><g id="Page-1" fill="none" fill-rule="evenodd"><g id="042---Match-Expiry-" fill="rgb(0,0,0)" fill-rule="nonzero"><path id="Shape" d="m23 31c.0007385-5.4269089 2.4545001-10.5626805 6.676-13.973l-1.53-2.506c-.2877404-.4716512-.1386512-1.0872596.333-1.375s1.0872596-.1386512 1.375.333l1.452 2.379c2.0334658-1.3060675 4.3107024-2.1861408 6.694-2.587v-2.271h-1c-1.6568542 0-3-1.34314575-3-3s1.3431458-3 3-3h8c1.6568542 0 3 1.34314575 3 3s-1.3431458 3-3 3h-1v2.271c2.3832976.4008592 4.6605342 1.2809325 6.694 2.587l1.452-2.379c.1861354-.3051048.520903-.4877313.8781992-.4790857.3572963.0086455.6828392.2072496.8540001.521.1711608.3137504.1619361.6949809-.0241993 1.0000857l-1.53 2.506c1.3481296 1.0942194 2.5322054 2.3762947 3.516 3.807.7735776-1.9409944 1.1739158-4.0105396 1.18-6.1 0-8.401-5.808-14.734-13.51-14.734-5.4131794.06031326-10.4804569 2.67160501-13.671 7.045-.1845756.28395395-.5003291.45519096-.839.455-.3375769-.00004477-.6523455-.1704034-.837-.453-3.2007206-4.36280716-8.2625452-6.97164778-13.673-7.047-7.702 0-13.51 6.333-13.51 14.73 0 10.334 9.915 18.557 24.923 31l2.456 2.039c.3738057.3056534.9111943.3056534 1.285 0l1.835-1.522c-5.2670161-3.2796234-8.471738-9.0423778-8.479-15.247zm-13.7-25.36c-2.82977839 2.14943084-4.44042211 5.5384937-4.32 9.09 0 .5522847-.44771525 1-1 1s-1-.4477153-1-1c-.12083969-4.2055002 1.8099589-8.20732919 5.177-10.73.45254476-.29471317 1.0573308-.17687102 1.36612118.2661878s.21001395 1.05124969-.22312118 1.3738122zm5.19-1.64c-.5266509-.00253001-1.0523496.04501725-1.57.142-.0629737.01188897-.1269139.01791475-.191.018-.5135937-.0025402-.9417546-.39373436-.9905338-.90501268s.2976859-.97637672.8015338-1.07598732c.6427869-.12184048 1.2957735-.1817813 1.95-.179.5522847 0 1 .44771525 1 1s-.4477153 1-1 1z" data-original="#000000" class="active-path" data-old_color="#000000" fill="#FFFFFF"/><path id="Shape" d="m45 9c.5522847 0 1-.44771525 1-1s-.4477153-1-1-1h-8c-.5522847 0-1 .44771525-1 1s.4477153 1 1 1z" data-original="#000000" class="active-path" data-old_color="#000000" fill="#FFFFFF"/><path id="Shape" d="m41 13c.338 0 .667.032 1 .051v-2.051h-2v2.051c.333-.019.662-.051 1-.051z" data-original="#000000" class="active-path" data-old_color="#000000" fill="#FFFFFF"/><path id="Shape" d="m41 20c-6.0751322 0-11 4.9248678-11 11s4.9248678 11 11 11 11-4.9248678 11-11c-.0071635-6.0721626-4.9278374-10.9928365-11-11zm6 12h-6c-.5522847 0-1-.4477153-1-1v-7c0-.5522847.4477153-1 1-1s1 .4477153 1 1v6h5c.5522847 0 1 .4477153 1 1s-.4477153 1-1 1z" data-original="#000000" class="active-path" data-old_color="#000000" fill="#FFFFFF"/><path id="Shape" d="m41 15c-8.836556 0-16 7.163444-16 16s7.163444 16 16 16 16-7.163444 16-16c-.0104696-8.8322157-7.1677843-15.9895304-16-16zm0 29c-7.1797017 0-13-5.8202983-13-13s5.8202983-13 13-13 13 5.8202983 13 13c-.008266 7.1762751-5.8237249 12.991734-13 13z" data-original="#000000" class="active-path" data-old_color="#000000" fill="#FFFFFF"/></g></g></g> </svg>
