<?xml version="1.0"?>
<svg xmlns="http://www.w3.org/2000/svg" height="512px" viewBox="0 0 60 60" width="512px"><g><g id="017---Gender-Equality" transform="translate(0 -1)"><path id="Shape" d="m53 13h-1.111c2.037386-1.9882756 2.6677304-5.01236561 1.5943752-7.64904724-1.0733552-2.63668162-3.6365908-4.36071114-6.4833752-4.36071114s-5.41002 1.72402952-6.4833752 4.36071114c-1.0733552 2.63668163-.4430108 5.66077164 1.5943752 7.64904724h-1.111c-3.355612.0053875-6.2367828 2.3880554-6.872 5.683-2.7133261-.9242032-5.6584115-.9104691-8.363.039l-.865-2.447c-.7254604-1.9643922-2.5959347-3.2705337-4.69-3.275h-.321c2.037386-1.9882756 2.6677304-5.01236561 1.5943752-7.64904724-1.0733552-2.63668162-3.6365908-4.36071114-6.4833752-4.36071114s-5.41002004 1.72402952-6.48337523 4.36071114c-1.07335518 2.63668163-.44301076 5.66077164 1.59437523 7.64904724h-.321c-2.0962488.007176-3.96687536 1.3174123-4.69 3.285l-4.868 13.697c-.43726618 1.19847-.23240325 2.5372389.54324891 3.5501041s2.01473166 1.559631 3.28575109 1.4498959l-1.061 3.018c-.32472752.9184677-.18326151 1.9374242.37939129 2.7326932.56265279.7952689 1.47642667 1.2678176 2.45060871 1.2673068h1.17v15.5c.00272796.9882832.4218474 1.9296515 1.15445399 2.5929755s1.71084965.9871695 2.69454601.8920245c1.8179557-.2338101 3.1725706-1.7921976 3.151-3.625v-15.36h2v15.5c.0023839.9306456.3743692 1.8222271 1.0341229 2.478605.6597536.656378 1.5532315 1.023785 2.4838771 1.021395 1.9606848-.0571917 3.5118165-1.6787079 3.482-3.64 0-16.579-.057-15.36.1-15.36 5.0428774 3.1909936 11.6151489 2.5126855 15.9-1.641v17.141c.0386599 1.9329966 1.6370034 3.4686599 3.57 3.43s3.4686599-1.6370034 3.43-3.57v-15.36h2v15.5c.0021095.9884869.4210453 1.9302362 1.1538017 2.5936959.7327565.6634596 1.7113605.9870847 2.6951983.8913041 1.8179557-.2338101 3.1725706-1.7921976 3.151-3.625v-19.7c1.1074456.5107983 2.400247.4128686 3.4181115-.2589219 1.0178645-.6717906 1.6161679-1.82199 1.5818885-3.0410781v-14.36c-.0044086-3.8641657-3.1358343-6.9955914-7-7zm-11-5c0-2.76142375 2.2385763-5 5-5s5 2.23857625 5 5c0 2.7614237-2.2385763 5-5 5-2.7600532-.0033061-4.9966939-2.2399468-5-5zm-32 0c0-2.76142375 2.2385763-5 5-5s5 2.23857625 5 5c0 2.7614237-2.2385763 5-5 5-2.7600532-.0033061-4.9966939-2.2399468-5-5zm11 34v15.36c.0305252.8076599-.5460827 1.5112588-1.344 1.64-.4235148.0417668-.8449611-.09736-1.1603735-.3830597-.3154124-.2856996-.4954234-.691371-.4956265-1.1169403v-15.5c0-1.1045695-.8954305-2-2-2h-2c-1.1045695 0-2 .8954305-2 2v15.36c.0305252.8076599-.5460827 1.5112588-1.344 1.64-.4235148.0417668-.84496109-.09736-1.16037351-.3830597-.31541241-.2856996-.49542335-.691371-.49562649-1.1169403v-15.5c0-1.1045695-.8954305-2-2-2-1.252 0-1.626.089-1.989-.423-.19041701-.2651022-.23792723-.6070261-.127-.914 1.986-5.631 4.116-11.74 6.061-17.337.1276109-.3404398.060396-.7233174-.1755406-.9999358-.2359366-.2766183-.6034175-.4033895-.95972505-.3310797-.35630757.0723097-.64529705.3323063-.75473435.6790155-3.3 9.569-2.411 7.015-4.107 11.8-.56723806.5792509-1.46234904.6827962-2.1468509.2483451s-.97183664-1.288491-.6891491-2.0483451l4.867-13.7c.42238982-1.1884339 1.54975026-1.9801128 2.811-1.974h10.42c1.2550759-.0081492 2.3795065.7743072 2.808 1.954l.906 2.561c-.9815044.5253457-1.8918735 1.173929-2.709 1.93l-.271-.775c-.182254-.5213568-.7526432-.796254-1.274-.614s-.796254.7526432-.614 1.274l.626 1.793c-4.1695939 5.4197663-3.3983341 13.1490169 1.76 17.638-.2839488.3507165-.4398567.7877524-.442 1.239zm9 0c-6.0751322 0-11-4.9248678-11-11s4.9248678-11 11-11 11 4.9248678 11 11c-.0071635 6.0721626-4.9278374 10.9928365-11 11zm28-7.64c.0447433.6139062-.2859102 1.1939936-.8369427 1.4683038-.5510324.2743102-1.2131976.1884593-1.6760573-.2173038-.3130851-.2841227-.4902214-.6882262-.487-1.111v-9.5c0-.5522847-.4477153-1-1-1s-1 .4477153-1 1v32.36c.0485146.6144571-.2813024 1.1967224-.8332583 1.4710504s-1.2152413.1856453-1.6757417-.2240504c-.3136298-.2823958-.4921879-.6849697-.491-1.107v-15.5c0-1.1045695-.8954305-2-2-2h-2c-1.1045695 0-2 .8954305-2 2v15.36c.0485146.6144571-.2813024 1.1967224-.8332583 1.4710504s-1.2152413.1856453-1.6757417-.2240504c-.3136298-.2823958-.4921879-.6849697-.491-1.107v-19.6c1.9296108-3.0610713 2.4923972-6.7891828 1.5523638-10.2834484-.9400334-3.4942657-3.2973688-6.4368009-6.5023638-8.1165516.2513755-2.5476868 2.3899548-4.4918498 4.95-4.5h12c2.7600532.0033061 4.9966939 2.2399468 5 5z" data-original="#000000" class="active-path" data-old_color="#000000" fill="#FFFFFF"/><path id="Shape" d="m35 28h-10c-.5522847 0-1 .4477153-1 1s.4477153 1 1 1h10c.5522847 0 1-.4477153 1-1s-.4477153-1-1-1z" data-original="#000000" class="active-path" data-old_color="#000000" fill="#FFFFFF"/><path id="Shape" d="m35 32h-10c-.5522847 0-1 .4477153-1 1s.4477153 1 1 1h10c.5522847 0 1-.4477153 1-1s-.4477153-1-1-1z" data-original="#000000" class="active-path" data-old_color="#000000" fill="#FFFFFF"/></g></g> </svg>
