<?xml version="1.0"?>
<svg xmlns="http://www.w3.org/2000/svg" height="512px" viewBox="0 0 60 60" width="512px" class=""><g><g id="Page-1" fill="none" fill-rule="evenodd"><g id="024---Invoices" fill="rgb(0,0,0)" fill-rule="nonzero"><path id="Shape" d="m11 17.5c0-.5522847-.4477153-1-1-1-.55228475 0-1 .4477153-1 1 .09654226 2.2415987 1.7783513 4.0953727 4 4.409v.091c0 .5522847.4477153 1 1 1s1-.4477153 1-1v-.091c2.2216487-.3136273 3.9034577-2.1674013 4-4.409-.0965423-2.2415987-1.7783513-4.0953727-4-4.409v-4.937c1.1128409.25246244 1.9267959 1.20723172 2 2.346 0 .5522847.4477153 1 1 1s1-.4477153 1-1c-.0965423-2.24159872-1.7783513-4.09537268-4-4.409v-.091c0-.55228475-.4477153-1-1-1s-1 .44771525-1 1v.091c-2.2216487.31362732-3.90345774 2.16740128-4 4.409.09654226 2.2415987 1.7783513 4.0953727 4 4.409v4.937c-1.1128409-.2524624-1.9267959-1.2072317-2-2.346zm6 0c-.0732041 1.1387683-.8871591 2.0935376-2 2.346v-4.692c1.1128409.2524624 1.9267959 1.2072317 2 2.346zm-6-7c.0732041-1.13876828.8871591-2.09353756 2-2.346v4.692c-1.1128409-.2524624-1.9267959-1.2072317-2-2.346z" data-original="#000000" class="active-path" data-old_color="#000000" fill="#FFFFFF"/><path id="Shape" d="m14 28c7.7319865 0 14-6.2680135 14-14s-6.2680135-14-14-14-14 6.2680135-14 14c.00826732 7.7285595 6.27144053 13.9917327 14 14zm0-26c6.627417 0 12 5.372583 12 12s-5.372583 12-12 12-12-5.372583-12-12c.00716485-6.62444695 5.37555305-11.99283515 12-12z" data-original="#000000" class="active-path" data-old_color="#000000" fill="#FFFFFF"/><path id="Shape" d="m51.774 8.172c-1.5821292-1.51213879-4.0738708-1.51213879-5.656 0l-4.828 4.828h-10.29c-.5522847 0-1 .4477153-1 1s.4477153 1 1 1h8.29l-21.457 21.456-.006.009c-.037564.0470465-.0710201.0972307-.1.15-.0450418.0567174-.083927.118062-.116.183l-.006.008-3.112 8.143c-.007.016-.013.031-.019.048l-2.27 5.939c-.3519342.9206085-.2305482 1.9552256.3249156 2.769374s1.4745327 1.3045355 2.4600844 1.312626l23.011-.018c.5522847 0 1-.4477153 1-1s-.4477153-1-1-1h-17.178l1.2-.458.047-.018 8.143-3.113.008-.005c.0593097-.0301827.1155701-.0660153.168-.107.0588555-.0310521.1144645-.0679015.166-.11l.008-.005 20.438-20.439v27.255c0 1.1045695-.8954305 2-2 2h-38c-1.1045695 0-2-.8954305-2-2v-26c0-.5522847-.44771525-1-1-1s-1 .4477153-1 1v26c0 2.209139 1.790861 4 4 4h38c2.209139 0 4-1.790861 4-4v-29.255l5.845-5.845c1.5615278-1.5619994 1.5615278-4.0940006 0-5.656zm-2.828 19.8-9.9-9.9 2.122-2.121 9.9 9.9zm-11.314-8.487 2.121 2.121-11.313 11.314c-.2599566.2510745-.3642126.6228779-.2726972.9725073.0915155.3496295.3645604.6226744.7141899.7141899.3496294.0915154.7214328-.0127406.9725073-.2726972l11.313-11.313 2.833 2.828-3.54 3.536c-.3907414.3907415-.3907414 1.0242585 0 1.415.3907415.3907414 1.0242585.3907414 1.415 0l3.535-3.536 2.122 2.122-17.678 17.677-2.122-2.122 11.314-11.314c.3789722-.3923789.3735524-1.0160848-.0121814-1.4018186s-1.0094397-.3911536-1.4018186-.0121814l-11.314 11.314-2.828-2.827 3.535-3.535c.3789722-.3923789.3735524-1.0160848-.0121814-1.4018186s-1.0094397-.3911536-1.4018186-.0121814l-3.535 3.535-2.121-2.121zm-15.714 30.955-5.341-5.34 2.347-6.138 9.133 9.132zm-6.918 2.56c-.019 0-.035.01-.053.011-.2441556-.0171318-.4742315-.1206482-.649-.292-.2837575-.2778814-.3728692-.6989935-.226-1.068l1.728-4.506 4.077 4.077-4.508 1.724c-.0964946.0338294-.1977656.0520582-.3.054zm42.431-33.515-4.95 4.95-9.9-9.9 4.95-4.95c.791167-.75581397 2.036833-.75581397 2.828 0l7.071 7.071c.7807639.7809997.7807639 2.0470003 0 2.828z" data-original="#000000" class="active-path" data-old_color="#000000" fill="#FFFFFF"/><path id="Shape" d="m49.653 11.707c-.3966954-.3751231-1.0173046-.3751231-1.414 0l-2.121 2.122c-.3789722.3923789-.3735524 1.0160848.0121814 1.4018186s1.0094397.3911536 1.4018186.0121814l1.414-1.415 1.414 1.415c.2510745.2599566.6228779.3642126.9725073.2726972.3496295-.0915155.6226744-.3645604.7141899-.7141899.0915154-.3496294-.0127406-.7214328-.2726972-.9725073z" data-original="#000000" class="active-path" data-old_color="#000000" fill="#FFFFFF"/><path id="Shape" d="m47 55c.5522847 0 1-.4477153 1-1s-.4477153-1-1-1h-4c-.5522847 0-1 .4477153-1 1s.4477153 1 1 1z" data-original="#000000" class="active-path" data-old_color="#000000" fill="#FFFFFF"/></g></g></g> </svg>
