<svg xmlns="http://www.w3.org/2000/svg" width="20.936" height="24.077" viewBox="0 0 20.936 24.077">
  <path id="Icon_awesome-first-order" data-name="Icon awesome-first-order" d="M.71,10.52s.009-.014.014-.018a.027.027,0,0,1,0,.018Zm9.832-6.086a6.488,6.488,0,0,0-1,.078l.172,3.094L8.693,4.668A7.375,7.375,0,0,0,6.83,5.43L8.2,8.248,6.1,5.912A7.668,7.668,0,0,0,4.673,7.33L7.03,9.414,4.184,8.051a7.319,7.319,0,0,0-.773,1.836l2.995,1.037L3.239,10.74a8,8,0,0,0-.065,1.01,8.728,8.728,0,0,0,.065,1l3.153-.184L3.411,13.6a7.456,7.456,0,0,0,.773,1.85L7.03,14.086l-2.371,2.07A6.975,6.975,0,0,0,6.1,17.575L8.19,15.238,6.816,18.056a7.242,7.242,0,0,0,1.863.776l1.039-2.965-.186,3.121a6.813,6.813,0,0,0,1.011.078,6.671,6.671,0,0,0,1.011-.078l-.186-3.149,1.053,2.988a7.407,7.407,0,0,0,1.863-.776l-1.369-2.814L15,17.575a6.905,6.905,0,0,0,1.425-1.418l-2.357-2.07,2.846,1.349a7.205,7.205,0,0,0,.773-1.85L14.71,12.562l3.139.184a6.393,6.393,0,0,0,.065-1,6.571,6.571,0,0,0-.065-1.01l-3.153.184L17.677,9.9a6.78,6.78,0,0,0-.773-1.85L14.067,9.414,16.424,7.33A7.667,7.667,0,0,0,15,5.912L12.9,8.248l1.369-2.8A7.242,7.242,0,0,0,12.4,4.668L11.366,7.619l.186-3.107A6.127,6.127,0,0,0,10.542,4.434ZM20.76,5.875v11.75L10.542,23.5.323,17.625V5.875L10.542,0Zm-.8.473L10.542.959,1.12,6.348V17.138l9.422,5.4,9.422-5.4V6.348ZM10.542,1.7l8.742,5.021V16.771L10.542,21.8,1.8,16.771V6.729Zm0,2.336a7.7,7.7,0,1,0,7.773,7.711A7.735,7.735,0,0,0,10.542,4.039Z" transform="translate(-0.073 0.288)" fill="none" stroke="#fff" stroke-width="0.5"/>
</svg>
