<?xml version="1.0"?>
<svg xmlns="http://www.w3.org/2000/svg" height="512px" viewBox="-14 0 511 512" width="512px" class=""><g><path d="m468.191406 398.769531h-54.152344v39.382813c0 8.144531 6.625 14.769531 14.769532 14.769531 21.902344 0 40.132812 15.980469 43.671875 36.894531 6.582031-8.96875 10.480469-20.019531 10.480469-31.96875v-44.308594c0-8.15625-6.613282-14.769531-14.769532-14.769531zm0 0" data-original="#000000" class="active-path" fill="#000000"/><path d="m428.808594 482.460938c-24.433594 0-44.308594-19.875-44.308594-44.308594v-280.613282h24.617188c3.191406 0 6.300781-1.039062 8.859374-2.953124l39.386719-29.539063c3.71875-2.789063 5.90625-7.167969 5.90625-11.816406v-68.921875c0-4.648438-2.1875-9.027344-5.90625-11.816406l-39.386719-29.539063c-2.558593-1.917969-5.667968-2.953125-8.859374-2.953125h-354.464844c-3.195313 0-6.304688 1.035156-8.859375 2.953125l-39.386719 29.539063c-3.71875 2.789062-5.90625 7.167968-5.90625 11.816406v68.921875c0 4.648437 2.1875 9.027343 5.90625 11.816406l39.386719 29.539063c2.554687 1.914062 5.664062 2.953124 8.859375 2.953124h24.617187v280.613282c0 40.71875 33.128907 73.847656 73.847657 73.847656h275.691406c8.15625 0 14.769531-6.613281 14.769531-14.769531s-6.613281-14.769531-14.769531-14.769531zm-354.460938-388.921876c-8.15625 0-14.769531-6.613281-14.769531-14.769531s6.613281-14.769531 14.769531-14.769531h315.074219c8.15625 0 14.769531 6.613281 14.769531 14.769531s-6.613281 14.769531-14.769531 14.769531zm196.921875 108.308594c8.15625 0 14.769531 6.609375 14.769531 14.769532v14.765624c0 22.769532-17.261718 41.570313-39.386718 44.03125v19.96875c0 8.160157-6.609375 14.769532-14.769532 14.769532-8.15625 0-14.765624-6.609375-14.765624-14.769532v-19.691406h-24.617188c-8.15625 0-14.769531-6.613281-14.769531-14.769531s6.613281-14.769531 14.769531-14.769531h49.230469c8.144531 0 14.769531-6.625 14.769531-14.769532h-64c-8.15625 0-14.769531-6.609374-14.769531-14.765624v-14.769532c0-22.769531 17.261719-41.570312 39.386719-44.03125v-19.96875c0-8.15625 6.609374-14.769531 14.765624-14.769531 8.160157 0 14.769532 6.613281 14.769532 14.769531v19.691406h24.617187c8.15625 0 14.769531 6.613282 14.769531 14.769532s-6.613281 14.769531-14.769531 14.769531h-49.230469c-8.144531 0-14.769531 6.625-14.769531 14.769531zm0 226.460938h-78.769531c-8.15625 0-14.769531-6.613282-14.769531-14.769532s6.613281-14.769531 14.769531-14.769531h78.769531c8.15625 0 14.769531 6.613281 14.769531 14.769531s-6.613281 14.769532-14.769531 14.769532zm39.382813-59.078125h-157.535156c-8.160157 0-14.769532-6.613281-14.769532-14.769531s6.609375-14.769532 14.769532-14.769532h157.535156c8.15625 0 14.769531 6.613282 14.769531 14.769532s-6.613281 14.769531-14.769531 14.769531zm0 0" data-original="#000000" class="active-path" fill="#000000"/></g> </svg>
