<?xml version="1.0"?>
<svg xmlns="http://www.w3.org/2000/svg" height="512px" viewBox="0 0 60 60" width="512px" class=""><g><g id="Page-1" fill="none" fill-rule="evenodd"><g id="011---Pills" fill="rgb(0,0,0)" fill-rule="nonzero" transform="translate(0 -1)"><path id="Shape" d="m56.777 42.223c-.005 0-.013-.007-.018-.012-.4544244-.4497152-.9469299-.8592443-1.472-1.224l1.79-1.79c2.6086178-2.5971087 3.5253616-6.4454875 2.3678052-9.9397577-1.1575564-3.4942701-4.190573-6.034201-7.8338052-6.5602423-2.1825489-13.05026317-13.8234997-22.37612808-27.0355564-21.65887912-13.2120567.71724895-23.77501485 11.24850762-24.53196945 24.45834892-.7569546 13.2098414 8.53388128 24.8787686 21.57752585 27.1005302.5050421 3.658373 3.037876 6.7153819 6.5385786 7.8917502s7.365633.26925 9.9774214-2.3417502l1.854-1.854c.363944.5226948.7721108 1.0131641 1.22 1.466.005.005.007.013.012.018s.013.007.018.012c2.7773827 2.7773827 6.8255062 3.8620741 10.6194815 2.8454815s6.7574074-3.9800247 7.774-7.774-.0680988-7.8420988-2.8454815-10.6194815c-.005-.005-.007-.013-.012-.018zm-14.8 13.388c-2.863175-3.5763666-2.5786501-8.73384.6605509-11.9735538s8.3966294-3.525055 11.9734491-.6624462zm15.963-23.291c.0006611 2.0519402-.8191977 4.0189531-2.277 5.463l-2.181 2.181c-3.8394049-1.7283963-8.3300483-1.0995428-11.547 1.617l-5.973-5.973 8.765-8.761c3.0221948-3.0162186 7.9158052-3.0162186 10.938 0 1.4621937 1.4450273 2.2820056 3.4172604 2.275 5.473zm-33.578 12.054c-.155.155-.293.32-.436.483-2.1040308-.2373075-4.1482339-.8510765-6.035-1.812l.475-.822c.1814844-.3095704.1831833-.6926495.0044519-1.0038174-.1787315-.311168-.5104885-.5027136-.8693336-.5019247s-.6897567.1937913-.8671183.5057421l-.465.8c-2.0649871-1.3641399-3.831643-3.1331772-5.193-5.2l.8-.463c.3119508-.1773616.5049532-.5082732.5057421-.8671183s-.1907567-.6906021-.5019247-.8693336c-.3111679-.1787314-.694247-.1770325-1.0038174.0044519l-.818.473c-1.12350537-2.2084387-1.77402447-4.6269393-1.91-7.101h.952c.55228475 0 1-.4477153 1-1s-.44771525-1-1-1h-.949c.13266967-2.4762349.77974947-4.8976756 1.9-7.11l.825.476c.3095704.1814844.6926495.1831833 1.0038174.0044519.311168-.1787315.5027136-.5104885.5019247-.8693336s-.1937913-.6897567-.5057421-.8671183l-.828-.478c1.360863-2.0738588 3.1331412-3.846137 5.207-5.207l.478.828c.1773616.3119508.5082732.5049532.8671183.5057421s.6906021-.1907567.8693336-.5019247c.1787314-.3111679.1770325-.694247-.0044519-1.0038174l-.476-.825c2.2125535-1.12073132 4.6343522-1.76815636 7.111-1.901v.949c0 .5522847.4477153 1 1 1s1-.4477153 1-1v-.952c2.476151.13485736 4.8968375.78541471 7.107 1.91l-.473.819c-.1814844.3095704-.1831833.6926495-.0044519 1.0038174.1787315.311168.5104885.5027136.8693336.5019247s.6897567-.1937913.8671183-.5057421l.463-.8c2.066851 1.3617353 3.8358794 3.1287225 5.2 5.194l-.8.465c-.3119508.1773616-.5049532.5082732-.5057421.8671183s.1907567.6906021.5019247.8693336c.3111679.1787314.694247.1770325 1.0038174-.0044519l.821-.474c.9624664 1.8911857 1.5765948 3.9402 1.813 6.049-.184.159-.369.317-.544.492zm-22.362-17.374c-.0114901-12.4005786 9.4326423-22.76485287 21.7808855-23.90299722 12.3482431-1.13814435 23.5277311 7.32523952 25.7831145 19.51899722-1.3479429.0830531-2.663846.4457438-3.864 1.065-.3828125-2.26942-1.1613097-4.4539508-2.3-6.454-.0168999-.078627-.0434335-.1548693-.079-.227-.04137-.0586453-.0889821-.112628-.142-.161-1.7155995-2.8683374-4.1128759-5.2687054-6.979-6.988-.1112412-.14501762-.2764628-.23881149-.458-.26-6.0912039-3.47609117-13.5703584-3.45514863-19.642.055-.0339488.00903882-.0673393.02005768-.1.033-.0351719.02681644-.0685748.05587695-.1.087-2.945025 1.7338669-5.4001331 4.188975-7.134 7.134-.03136918.0311958-.06044478.064616-.087.1-.01297737.032648-.02399691.0660405-.033.1-3.50760143 6.0693737-3.52892257 13.5447164-.056 19.634.01645526.092553.04644329.1821802.089.266.05408174.0888153.12154183.1687555.2.237 1.7175902 2.8492142 4.1086108 5.2330237 6.963 6.942.0484159.0529733.1023935.1005809.161.142.086995.048489.1806714.0838703.278.105 1.9759872 1.1203748 4.131222 1.8897632 6.37 2.274-.6279771 1.1942511-1.0008638 2.5059951-1.095 3.852-11.3177604-2.1543145-19.51877122-12.0310892-19.556-23.552zm34.723 29.733c-3.0237351 3.015006-7.9179464 3.0116923-10.9375959-.0074056-3.0196496-3.0190979-3.0238576-7.9133085-.0094041-10.9375944l8.771-8.767 5.977 5.979c-2.6720368 3.2182246-3.275944 7.6780559-1.556 11.491zm12.277 2.267c-2.040832.0007997-4.0206199-.6960602-5.611-1.975l12.636-12.636c2.1633368 2.6989445 2.5861544 6.3997609 1.0873278 9.517107-1.4988267 3.1173461-4.6533815 5.0981542-8.1123278 5.093893z" data-original="#000000" class="active-path" data-old_color="#000000" fill="#FFFFFF"/><path id="Shape" d="m45.293 28.293c-.2599566.2510745-.3642126.6228779-.2726972.9725073.0915155.3496295.3645604.6226744.7141899.7141899.3496294.0915154.7214328-.0127406.9725073-.2726972 2.317-2.316 4.5-1.028 4.745-.871.459295.2746289 1.0533918.1390016 1.3480043-.3077382.2946125-.4467397.1853113-1.0462386-.2480043-1.3602618-2.3746783-1.4229437-5.4264305-.949983-7.259 1.125z" data-original="#000000" class="active-path" data-old_color="#000000" fill="#FFFFFF"/><path id="Shape" d="m26 13c-.5522847 0-1 .4477153-1 1v12.412l-8.486 4.714c-.4826969.2684104-.6564104.8773031-.388 1.36.2684104.4826968.8773031.6564104 1.36.388l9-5c.3172782-.1764353.514015-.5109644.514-.874v-13c0-.5522847-.4477153-1-1-1z" data-original="#000000" class="active-path" data-old_color="#000000" fill="#FFFFFF"/></g></g></g> </svg>
