<?xml version="1.0"?>
<svg xmlns="http://www.w3.org/2000/svg" height="512px" viewBox="-46 0 512 512" width="512px" class=""><g><path d="m376.605469 68.265625c0-37.703125-30.5625-68.265625-68.265625-68.265625s-68.265625 30.5625-68.265625 68.265625 30.5625 68.269531 68.265625 68.269531c37.683594-.042968 68.222656-30.582031 68.265625-68.269531zm-119.464844 0c0-28.277344 22.921875-51.199219 51.199219-51.199219s51.199218 22.921875 51.199218 51.199219-22.921874 51.199219-51.199218 51.199219c-28.265625-.027344-51.171875-22.933594-51.199219-51.199219zm0 0" data-original="#000000" class="active-path" data-old_color="#000000" fill="#FFFFFF"/><path d="m197.40625 196.265625v89.601563c0 16.496093 13.371094 29.867187 29.867188 29.867187 4.4375-.027344 8.8125-1.050781 12.800781-2.996094v160.863281c.070312 21.175782 17.21875 38.328126 38.398437 38.398438 11.65625-.042969 22.652344-5.402344 29.867188-14.558594 7.210937 9.15625 18.210937 14.515625 29.867187 14.558594 21.171875-.078125 38.320313-17.226562 38.398438-38.398438v-160.863281c3.988281 1.945313 8.363281 2.96875 12.800781 2.996094 16.496094 0 29.867188-13.371094 29.867188-29.867187v-89.601563c-.027344-23.550781-19.113282-42.636719-42.667969-42.664063h-136.53125c-23.554688.027344-42.640625 19.113282-42.667969 42.664063zm29.867188 102.402344c-7.070313 0-12.800782-5.730469-12.800782-12.800781v-12.800782h25.601563v12.800782c0 7.070312-5.730469 12.800781-12.800781 12.800781zm132.265624 174.933593c-.074218 11.75-9.582031 21.257813-21.332031 21.332032-11.78125 0-21.335937-9.550782-21.335937-21.332032v-98.136718c0-4.710938-3.820313-8.53125-8.53125-8.53125-4.714844 0-8.535156 3.820312-8.535156 8.53125v98.136718c0 5.65625-2.246094 11.082032-6.246094 15.082032-4 4.003906-9.429688 6.25-15.085938 6.25-11.75-.074219-21.257812-9.582032-21.332031-21.332032v-140.800781h102.398437zm29.867188-174.933593c-7.070312 0-12.800781-5.730469-12.800781-12.800781v-12.800782h25.601562v12.800782c0 7.070312-5.730469 12.800781-12.800781 12.800781zm-82.773438-93.867188h3.414063l14.308594 64.410157-16.015625 10.683593-16-10.667969zm10.238282-34.132812v17.066406h-17.066406v-17.066406zm-26.988282 30.898437-14.210937 63.941406c-1.503906 6.882813 1.351563 13.988282 7.203125 17.917969l16.007812 10.675781c5.726563 3.828126 13.195313 3.828126 18.921876 0l16-10.667968c5.847656-3.929688 8.707031-11.035156 7.199218-17.917969l-14.207031-63.941406c4.46875-3.195313 7.128906-8.347657 7.140625-13.839844v-17.066406h42.667969c14.140625 0 25.601562 11.460937 25.601562 25.597656v59.734375h-25.601562v-51.199219c0-4.714843-3.820313-8.535156-8.53125-8.535156-4.714844 0-8.535157 3.820313-8.535157 8.535156v110.933594h-102.398437v-110.933594c0-4.714843-3.820313-8.535156-8.535156-8.535156-4.710938 0-8.53125 3.820313-8.53125 8.535156v51.199219h-25.601563v-59.734375c0-14.136719 11.460938-25.597656 25.601563-25.597656h42.664062v17.066406c.019531 5.492187 2.675781 10.636719 7.144531 13.832031zm0 0" data-original="#000000" class="active-path" data-old_color="#000000" fill="#FFFFFF"/><path d="m2.035156 349.390625c2.96875 5.546875 8.75 9.007813 15.042969 9.007813h18.195313v128c0 14.140624 11.460937 25.601562 25.597656 25.601562h51.203125c14.136719 0 25.597656-11.460938 25.597656-25.601562v-128h18.195313c6.304687.003906 12.097656-3.472657 15.0625-9.039063 2.964843-5.566406 2.621093-12.316406-.898438-17.550781l-69.359375-102.339844c-3.15625-4.738281-8.472656-7.589844-14.167969-7.601562-5.691406-.011719-11.019531 2.816406-14.195312 7.542968l-69.460938 102.460938c-3.480468 5.242187-3.792968 11.976562-.8125 17.519531zm84.4375-110.40625 69.445313 102.347656h-18.246094c-9.425781 0-17.066406 7.640625-17.066406 17.066407v128c0 4.714843-3.820313 8.535156-8.53125 8.535156h-51.203125c-4.710938 0-8.53125-3.820313-8.53125-8.535156v-136.53125c0-4.714844-3.820313-8.535157-8.535156-8.535157l-26.757813.050781zm0 0" data-original="#000000" class="active-path" data-old_color="#000000" fill="#FFFFFF"/><path d="m77.9375 428.375c4.714844 0 8.535156-3.820312 8.535156-8.535156v-42.667969c0-4.710937-3.820312-8.53125-8.535156-8.53125-4.710938 0-8.53125 3.820313-8.53125 8.53125v42.667969c0 4.714844 3.820312 8.535156 8.53125 8.535156zm0 0" data-original="#000000" class="active-path" data-old_color="#000000" fill="#FFFFFF"/><path d="m77.9375 471.039062c4.714844 0 8.535156-3.820312 8.535156-8.53125v-8.535156c0-4.710937-3.820312-8.53125-8.535156-8.53125-4.710938 0-8.53125 3.820313-8.53125 8.53125v8.535156c0 4.710938 3.820312 8.53125 8.53125 8.53125zm0 0" data-original="#000000" class="active-path" data-old_color="#000000" fill="#FFFFFF"/><path d="m52.339844 145.066406c0-4.710937-3.820313-8.53125-8.535156-8.53125-4.710938 0-8.53125 3.820313-8.53125 8.53125.046874 24.957032 18.0625 46.253906 42.664062 50.433594v.765625c0 4.714844 3.824219 8.535156 8.535156 8.535156 4.710938 0 8.535156-3.820312 8.535156-8.535156v-.765625c24.625-4.144531 42.65625-25.460938 42.65625-50.433594 0-24.96875-18.03125-46.289062-42.65625-50.433594v-67.820312c15.023438 3.878906 25.539063 17.402344 25.597657 32.921875 0 4.710937 3.820312 8.53125 8.535156 8.53125 4.710937 0 8.53125-3.820313 8.53125-8.53125-.046875-24.957031-18.0625-46.253906-42.664063-50.433594v-.765625c0-4.714844-3.824218-8.535156-8.535156-8.535156-4.710937 0-8.535156 3.820312-8.535156 8.535156v.765625c-24.625 4.140625-42.65625 25.460938-42.65625 50.433594 0 24.96875 18.03125 46.289063 42.65625 50.429687v67.824219c-15.023438-3.878906-25.539062-17.40625-25.597656-32.921875zm68.265625 0c-.058594 15.515625-10.574219 29.042969-25.597657 32.921875v-65.84375c15.023438 3.878907 25.539063 17.40625 25.597657 32.921875zm-68.265625-85.332031c.058594-15.519531 10.574218-29.042969 25.597656-32.921875v65.84375c-15.023438-3.878906-25.539062-17.40625-25.597656-32.921875zm0 0" data-original="#000000" class="active-path" data-old_color="#000000" fill="#FFFFFF"/></g> </svg>
